# xmcd
#
# Track frame offsets:
#	150
#	17289
#	32933
#	50888
#	66678
#	83687
#	100864
#	116468
#	131051
#	145212
#
# Disc length: 2222 seconds
#
# Revision: 2
# Processed by: cddbd v1.5.2PL0 Copyright (c) Steve Scherf et al.
# Submitted via: EasyCDDAExtractor 15.3.0.1
#
DISCID=8c08ac0a
DTITLE=Cristian - Dias Felices
DYEAR=2005
DGENRE=Latin
TTITLE0=Sin Tu Amor
TTITLE1=Si Ya No Estas Aqui
TTITLE2=Viajando En El Tiempo
TTITLE3=Simone
TTITLE4=Dinamita
TTITLE5=Amor Total
TTITLE6=Descontrol
TTITLE7=Amor Eterno
TTITLE8=Abrazado A Tu Piel
TTITLE9=Dias Felices
EXTD=YEAR: 2005
EXTT0=
EXTT1=
EXTT2=
EXTT3=
EXTT4=
EXTT5=
EXTT6=
EXTT7=
EXTT8=
EXTT9=
PLAYORDER=
